<?xml version="1.0" encoding="UTF-8"?>
<svg width="200" height="50" version="1.1" viewBox="0 0 200 50" xmlns="http://www.w3.org/2000/svg">
 <g fill="#6ee7b7">
  <path d="m31.25 12.5c-6.9036 0-12.5 5.5964-12.5 12.5s5.5964 12.5 12.5 12.5c3.4518 0 6.25-5.5964 6.25-12.5s-2.7982-12.5-6.25-12.5zm-18.75 12.5c0-10.355 8.3929-18.75 18.75-18.75 5.1786 0 9.375 8.3929 9.375 18.75s-4.1964 18.75-9.375 18.75c-10.357 0-18.75-8.395-18.75-18.75z"/>
  <path d="m68.75 12.5c6.9036 0 12.5 5.5964 12.5 12.5s-5.5964 12.5-12.5 12.5c-3.4518 0-6.25-5.5964-6.25-12.5s2.7982-12.5 6.25-12.5zm18.75 12.5c0-10.355-8.3929-18.75-18.75-18.75-5.1786 0-9.375 8.3929-9.375 18.75s4.1964 18.75 9.375 18.75c10.357 0 18.75-8.395 18.75-18.75z"/>
  <path d="m100 6.25 37.5 37.5h-75z"/>
 </g>
 <path d="m110 25h60" stroke="#94a3b8" stroke-linecap="round" stroke-width="2"/>
 <path d="m140 15v20" stroke="#94a3b8" stroke-linecap="round" stroke-width="2"/>
</svg>