<?xml version="1.0" encoding="UTF-8"?>
<svg width="1200" height="630" version="1.1" viewBox="0 0 1200 630" xmlns="http://www.w3.org/2000/svg">
 <rect width="1200" height="630" fill="#0f1724"/>
 <g transform="matrix(2 0 0 2 400 165)" fill="#6ee7b7">
  <path d="m31.25 12.5c-6.9036 0-12.5 5.5964-12.5 12.5s5.5964 12.5 12.5 12.5c3.4518 0 6.25-5.5964 6.25-12.5s-2.7982-12.5-6.25-12.5zm-18.75 12.5c0-10.355 8.3929-18.75 18.75-18.75 5.1786 0 9.375 8.3929 9.375 18.75s-4.1964 18.75-9.375 18.75c-10.357 0-18.75-8.395-18.75-18.75z"/>
  <path d="m68.75 12.5c6.9036 0 12.5 5.5964 12.5 12.5s-5.5964 12.5-12.5 12.5c-3.4518 0-6.25-5.5964-6.25-12.5s2.7982-12.5 6.25-12.5zm18.75 12.5c0-10.355-8.3929-18.75-18.75-18.75-5.1786 0-9.375 8.3929-9.375 18.75s4.1964 18.75 9.375 18.75c10.357 0 18.75-8.395 18.75-18.75z"/>
  <path d="m100 6.25 37.5 37.5h-75z"/>
 </g>
 <text x="600" y="400" fill="#e6eef6" font-family="Inter, sans-serif" font-size="48" text-anchor="middle">NCM Solutions</text>
 <text x="600" y="460" fill="#94a3b8" font-family="Inter, sans-serif" font-size="32" text-anchor="middle">Full-Stack Python &amp; Web Development</text>
</svg>